<svg xmlns="http://www.w3.org/2000/svg" viewBox="0 0 320 220"><g stroke="#294c50" stroke-width="3" stroke-linecap="round" stroke-linejoin="round" fill="none"><rect x="80" y="20" width="160" height="185" rx="9" fill="#dcefe8"/><rect x="92" y="35" width="136" height="43" rx="5" fill="#fff"/><circle cx="107" cy="56" r="5" fill="#e9ba67"/><path d="M123 50h55m-55 10h55m19-16v19m9-19v19"/><rect x="92" y="88" width="136" height="43" rx="5" fill="#fff"/><circle cx="107" cy="109" r="5" fill="#e9ba67"/><path d="M123 103h55m-55 10h55m19-16v19m9-19v19"/><rect x="92" y="141" width="136" height="43" rx="5" fill="#fff"/><circle cx="107" cy="162" r="5" fill="#e9ba67"/><path d="M123 156h55m-55 10h55m19-16v19m9-19v19"/><path d="M160 205v10m-45 0h90"/></g><style>text{font: bold 18px sans-serif;fill:#294c50;stroke:none;text-anchor:middle}</style></svg>
