<svg xmlns="http://www.w3.org/2000/svg" viewBox="0 0 960 460" role="img"><title>Servers use block storage over a specialised storage network</title><style>text{font-family:Arial,sans-serif;fill:#24313b;font-size:22px} .label{font-weight:bold} .wire{stroke:#426976;stroke-width:5;fill:none} .case{fill:#e2eff2;stroke:#294c50;stroke-width:3}</style><g transform="translate(10 15) scale(0.65)"><g stroke="#294c50" stroke-width="3" stroke-linecap="round" stroke-linejoin="round" fill="none"><rect x="80" y="20" width="160" height="185" rx="9" fill="#dcefe8"/><rect x="92" y="35" width="136" height="43" rx="5" fill="#fff"/><circle cx="107" cy="56" r="5" fill="#e9ba67"/><path d="M123 50h55m-55 10h55m19-16v19m9-19v19"/><rect x="92" y="88" width="136" height="43" rx="5" fill="#fff"/><circle cx="107" cy="109" r="5" fill="#e9ba67"/><path d="M123 103h55m-55 10h55m19-16v19m9-19v19"/><rect x="92" y="141" width="136" height="43" rx="5" fill="#fff"/><circle cx="107" cy="162" r="5" fill="#e9ba67"/><path d="M123 156h55m-55 10h55m19-16v19m9-19v19"/><path d="M160 205v10m-45 0h90"/></g></g><g transform="translate(10 225) scale(0.65)"><g stroke="#294c50" stroke-width="3" stroke-linecap="round" stroke-linejoin="round" fill="none"><rect x="80" y="20" width="160" height="185" rx="9" fill="#dcefe8"/><rect x="92" y="35" width="136" height="43" rx="5" fill="#fff"/><circle cx="107" cy="56" r="5" fill="#e9ba67"/><path d="M123 50h55m-55 10h55m19-16v19m9-19v19"/><rect x="92" y="88" width="136" height="43" rx="5" fill="#fff"/><circle cx="107" cy="109" r="5" fill="#e9ba67"/><path d="M123 103h55m-55 10h55m19-16v19m9-19v19"/><rect x="92" y="141" width="136" height="43" rx="5" fill="#fff"/><circle cx="107" cy="162" r="5" fill="#e9ba67"/><path d="M123 156h55m-55 10h55m19-16v19m9-19v19"/><path d="M160 205v10m-45 0h90"/></g></g><text x="30" y="200">Application server</text><text x="30" y="420">Database server</text><path class="wire" d="M220 95h85v220H220m85-110h85m220 0h85"/><rect class="case" x="390" y="140" width="220" height="130" rx="14"/><text x="410" y="180">Specialised</text><text x="410" y="215">storage network</text><text x="410" y="250" class="label">Block access</text><g transform="translate(675 65) scale(.8)"><rect class="case" x="10" y="10" width="310" height="230" rx="18"/><rect x="25" y="30" width="280" height="35" rx="5" fill="#294c50"/><text x="42" y="55" style="fill:white;font-size:18px">Storage array</text><rect x="30" y="80" width="56" height="135" rx="6" fill="#fffdf7" stroke="#294c50" stroke-width="2"/><circle cx="58" cy="195" r="5" fill="#39704c"/><text x="51" y="125" style="font-size:18px">1</text><rect x="98" y="80" width="56" height="135" rx="6" fill="#fffdf7" stroke="#294c50" stroke-width="2"/><circle cx="126" cy="195" r="5" fill="#39704c"/><text x="119" y="125" style="font-size:18px">2</text><rect x="166" y="80" width="56" height="135" rx="6" fill="#fffdf7" stroke="#294c50" stroke-width="2"/><circle cx="194" cy="195" r="5" fill="#39704c"/><text x="187" y="125" style="font-size:18px">3</text><rect x="234" y="80" width="56" height="135" rx="6" fill="#fffdf7" stroke="#294c50" stroke-width="2"/><circle cx="262" cy="195" r="5" fill="#39704c"/><text x="255" y="125" style="font-size:18px">4</text></g><text x="692" y="325" class="label">Storage array</text><text x="692" y="360">Volumes for servers</text></svg>