<svg xmlns="http://www.w3.org/2000/svg" viewBox="0 0 1000 370"><rect width="1000" height="370" rx="18" fill="#f4ecdb"/><title>Illustrative early electronic-computer room</title><path d="M0 300H1000V370H0Z" fill="#d4c7ac"/><path d="M0 314H1000M0 345H1000" stroke="#b9ad96"/><g stroke="#4e615e" stroke-width="3"><rect x="210" y="45" width="126" height="254" rx="5" fill="#c4cfbf"/><rect x="222" y="65" width="102" height="58" fill="#7a8b80"/><circle cx="233" cy="81" r="3" fill="#f5df96" stroke="none"/><circle cx="253" cy="81" r="3" fill="#f5df96" stroke="none"/><circle cx="273" cy="81" r="3" fill="#f5df96" stroke="none"/><circle cx="293" cy="81" r="3" fill="#f5df96" stroke="none"/><circle cx="313" cy="81" r="3" fill="#f5df96" stroke="none"/><circle cx="233" cy="95" r="3" fill="#f5df96" stroke="none"/><circle cx="253" cy="95" r="3" fill="#f5df96" stroke="none"/><circle cx="273" cy="95" r="3" fill="#f5df96" stroke="none"/><circle cx="293" cy="95" r="3" fill="#f5df96" stroke="none"/><circle cx="313" cy="95" r="3" fill="#f5df96" stroke="none"/><circle cx="233" cy="109" r="3" fill="#f5df96" stroke="none"/><circle cx="253" cy="109" r="3" fill="#f5df96" stroke="none"/><circle cx="273" cy="109" r="3" fill="#f5df96" stroke="none"/><circle cx="293" cy="109" r="3" fill="#f5df96" stroke="none"/><circle cx="313" cy="109" r="3" fill="#f5df96" stroke="none"/><circle cx="234" cy="159" r="4" fill="#344b48"/><circle cx="259" cy="159" r="4" fill="#344b48"/><circle cx="284" cy="159" r="4" fill="#344b48"/><circle cx="309" cy="159" r="4" fill="#344b48"/><circle cx="234" cy="187" r="4" fill="#344b48"/><circle cx="259" cy="187" r="4" fill="#344b48"/><circle cx="284" cy="187" r="4" fill="#344b48"/><circle cx="309" cy="187" r="4" fill="#344b48"/><circle cx="234" cy="215" r="4" fill="#344b48"/><circle cx="259" cy="215" r="4" fill="#344b48"/><circle cx="284" cy="215" r="4" fill="#344b48"/><circle cx="309" cy="215" r="4" fill="#344b48"/><path d="M232 253v19m-4-15 8-3" fill="none"/><path d="M257 253v19m-4-15 8-3" fill="none"/><path d="M282 253v19m-4-15 8-3" fill="none"/><path d="M307 253v19m-4-15 8-3" fill="none"/><rect x="345" y="45" width="126" height="254" rx="5" fill="#c8c7b5"/><rect x="357" y="65" width="102" height="58" fill="#7a8b80"/><circle cx="368" cy="81" r="3" fill="#f5df96" stroke="none"/><circle cx="388" cy="81" r="3" fill="#f5df96" stroke="none"/><circle cx="408" cy="81" r="3" fill="#f5df96" stroke="none"/><circle cx="428" cy="81" r="3" fill="#f5df96" stroke="none"/><circle cx="448" cy="81" r="3" fill="#f5df96" stroke="none"/><circle cx="368" cy="95" r="3" fill="#f5df96" stroke="none"/><circle cx="388" cy="95" r="3" fill="#f5df96" stroke="none"/><circle cx="408" cy="95" r="3" fill="#f5df96" stroke="none"/><circle cx="428" cy="95" r="3" fill="#f5df96" stroke="none"/><circle cx="448" cy="95" r="3" fill="#f5df96" stroke="none"/><circle cx="368" cy="109" r="3" fill="#f5df96" stroke="none"/><circle cx="388" cy="109" r="3" fill="#f5df96" stroke="none"/><circle cx="408" cy="109" r="3" fill="#f5df96" stroke="none"/><circle cx="428" cy="109" r="3" fill="#f5df96" stroke="none"/><circle cx="448" cy="109" r="3" fill="#f5df96" stroke="none"/><circle cx="369" cy="159" r="4" fill="#344b48"/><circle cx="394" cy="159" r="4" fill="#344b48"/><circle cx="419" cy="159" r="4" fill="#344b48"/><circle cx="444" cy="159" r="4" fill="#344b48"/><circle cx="369" cy="187" r="4" fill="#344b48"/><circle cx="394" cy="187" r="4" fill="#344b48"/><circle cx="419" cy="187" r="4" fill="#344b48"/><circle cx="444" cy="187" r="4" fill="#344b48"/><circle cx="369" cy="215" r="4" fill="#344b48"/><circle cx="394" cy="215" r="4" fill="#344b48"/><circle cx="419" cy="215" r="4" fill="#344b48"/><circle cx="444" cy="215" r="4" fill="#344b48"/><path d="M367 253v19m-4-15 8-3" fill="none"/><path d="M392 253v19m-4-15 8-3" fill="none"/><path d="M417 253v19m-4-15 8-3" fill="none"/><path d="M442 253v19m-4-15 8-3" fill="none"/><rect x="480" y="45" width="126" height="254" rx="5" fill="#c4cfbf"/><rect x="492" y="65" width="102" height="58" fill="#7a8b80"/><circle cx="503" cy="81" r="3" fill="#f5df96" stroke="none"/><circle cx="523" cy="81" r="3" fill="#f5df96" stroke="none"/><circle cx="543" cy="81" r="3" fill="#f5df96" stroke="none"/><circle cx="563" cy="81" r="3" fill="#f5df96" stroke="none"/><circle cx="583" cy="81" r="3" fill="#f5df96" stroke="none"/><circle cx="503" cy="95" r="3" fill="#f5df96" stroke="none"/><circle cx="523" cy="95" r="3" fill="#f5df96" stroke="none"/><circle cx="543" cy="95" r="3" fill="#f5df96" stroke="none"/><circle cx="563" cy="95" r="3" fill="#f5df96" stroke="none"/><circle cx="583" cy="95" r="3" fill="#f5df96" stroke="none"/><circle cx="503" cy="109" r="3" fill="#f5df96" stroke="none"/><circle cx="523" cy="109" r="3" fill="#f5df96" stroke="none"/><circle cx="543" cy="109" r="3" fill="#f5df96" stroke="none"/><circle cx="563" cy="109" r="3" fill="#f5df96" stroke="none"/><circle cx="583" cy="109" r="3" fill="#f5df96" stroke="none"/><circle cx="504" cy="159" r="4" fill="#344b48"/><circle cx="529" cy="159" r="4" fill="#344b48"/><circle cx="554" cy="159" r="4" fill="#344b48"/><circle cx="579" cy="159" r="4" fill="#344b48"/><circle cx="504" cy="187" r="4" fill="#344b48"/><circle cx="529" cy="187" r="4" fill="#344b48"/><circle cx="554" cy="187" r="4" fill="#344b48"/><circle cx="579" cy="187" r="4" fill="#344b48"/><circle cx="504" cy="215" r="4" fill="#344b48"/><circle cx="529" cy="215" r="4" fill="#344b48"/><circle cx="554" cy="215" r="4" fill="#344b48"/><circle cx="579" cy="215" r="4" fill="#344b48"/><path d="M502 253v19m-4-15 8-3" fill="none"/><path d="M527 253v19m-4-15 8-3" fill="none"/><path d="M552 253v19m-4-15 8-3" fill="none"/><path d="M577 253v19m-4-15 8-3" fill="none"/><rect x="615" y="45" width="126" height="254" rx="5" fill="#c8c7b5"/><rect x="627" y="65" width="102" height="58" fill="#7a8b80"/><circle cx="638" cy="81" r="3" fill="#f5df96" stroke="none"/><circle cx="658" cy="81" r="3" fill="#f5df96" stroke="none"/><circle cx="678" cy="81" r="3" fill="#f5df96" stroke="none"/><circle cx="698" cy="81" r="3" fill="#f5df96" stroke="none"/><circle cx="718" cy="81" r="3" fill="#f5df96" stroke="none"/><circle cx="638" cy="95" r="3" fill="#f5df96" stroke="none"/><circle cx="658" cy="95" r="3" fill="#f5df96" stroke="none"/><circle cx="678" cy="95" r="3" fill="#f5df96" stroke="none"/><circle cx="698" cy="95" r="3" fill="#f5df96" stroke="none"/><circle cx="718" cy="95" r="3" fill="#f5df96" stroke="none"/><circle cx="638" cy="109" r="3" fill="#f5df96" stroke="none"/><circle cx="658" cy="109" r="3" fill="#f5df96" stroke="none"/><circle cx="678" cy="109" r="3" fill="#f5df96" stroke="none"/><circle cx="698" cy="109" r="3" fill="#f5df96" stroke="none"/><circle cx="718" cy="109" r="3" fill="#f5df96" stroke="none"/><circle cx="639" cy="159" r="4" fill="#344b48"/><circle cx="664" cy="159" r="4" fill="#344b48"/><circle cx="689" cy="159" r="4" fill="#344b48"/><circle cx="714" cy="159" r="4" fill="#344b48"/><circle cx="639" cy="187" r="4" fill="#344b48"/><circle cx="664" cy="187" r="4" fill="#344b48"/><circle cx="689" cy="187" r="4" fill="#344b48"/><circle cx="714" cy="187" r="4" fill="#344b48"/><circle cx="639" cy="215" r="4" fill="#344b48"/><circle cx="664" cy="215" r="4" fill="#344b48"/><circle cx="689" cy="215" r="4" fill="#344b48"/><circle cx="714" cy="215" r="4" fill="#344b48"/><path d="M637 253v19m-4-15 8-3" fill="none"/><path d="M662 253v19m-4-15 8-3" fill="none"/><path d="M687 253v19m-4-15 8-3" fill="none"/><path d="M712 253v19m-4-15 8-3" fill="none"/><rect x="750" y="45" width="126" height="254" rx="5" fill="#c4cfbf"/><rect x="762" y="65" width="102" height="58" fill="#7a8b80"/><circle cx="773" cy="81" r="3" fill="#f5df96" stroke="none"/><circle cx="793" cy="81" r="3" fill="#f5df96" stroke="none"/><circle cx="813" cy="81" r="3" fill="#f5df96" stroke="none"/><circle cx="833" cy="81" r="3" fill="#f5df96" stroke="none"/><circle cx="853" cy="81" r="3" fill="#f5df96" stroke="none"/><circle cx="773" cy="95" r="3" fill="#f5df96" stroke="none"/><circle cx="793" cy="95" r="3" fill="#f5df96" stroke="none"/><circle cx="813" cy="95" r="3" fill="#f5df96" stroke="none"/><circle cx="833" cy="95" r="3" fill="#f5df96" stroke="none"/><circle cx="853" cy="95" r="3" fill="#f5df96" stroke="none"/><circle cx="773" cy="109" r="3" fill="#f5df96" stroke="none"/><circle cx="793" cy="109" r="3" fill="#f5df96" stroke="none"/><circle cx="813" cy="109" r="3" fill="#f5df96" stroke="none"/><circle cx="833" cy="109" r="3" fill="#f5df96" stroke="none"/><circle cx="853" cy="109" r="3" fill="#f5df96" stroke="none"/><circle cx="774" cy="159" r="4" fill="#344b48"/><circle cx="799" cy="159" r="4" fill="#344b48"/><circle cx="824" cy="159" r="4" fill="#344b48"/><circle cx="849" cy="159" r="4" fill="#344b48"/><circle cx="774" cy="187" r="4" fill="#344b48"/><circle cx="799" cy="187" r="4" fill="#344b48"/><circle cx="824" cy="187" r="4" fill="#344b48"/><circle cx="849" cy="187" r="4" fill="#344b48"/><circle cx="774" cy="215" r="4" fill="#344b48"/><circle cx="799" cy="215" r="4" fill="#344b48"/><circle cx="824" cy="215" r="4" fill="#344b48"/><circle cx="849" cy="215" r="4" fill="#344b48"/><path d="M772 253v19m-4-15 8-3" fill="none"/><path d="M797 253v19m-4-15 8-3" fill="none"/><path d="M822 253v19m-4-15 8-3" fill="none"/><path d="M847 253v19m-4-15 8-3" fill="none"/></g><g fill="none" stroke-width="5" stroke-linecap="round"><path d="M234 159C225 270 377 280 394 187" stroke="#a35732"/><path d="M284 187C300 234 353 233 369 159" stroke="#426f77"/><path d="M504 215C513 292 644 284 689 159" stroke="#87611f"/><path d="M639 187C656 240 790 283 824 187" stroke="#a35732"/></g><g stroke="#3f5554" stroke-width="3" stroke-linecap="round" stroke-linejoin="round"><circle cx="162" cy="134" r="20" fill="#d7ab83"/><path d="M142 130q17-32 39 0" fill="#59493c"/><path d="M142 160h37l16 97h-66Z" fill="#fff9e7"/><path d="m175 170 36 17 25-27M144 173l-27 43" fill="none" stroke-width="12"/><path d="m146 259-5 74m35-74 12 74" fill="none" stroke-width="15"/><path d="m128 339 20-3m30 2 23 3" fill="none" stroke-width="9"/><circle cx="914" cy="154" r="18" fill="#d7ab83"/><path d="M895 150q12-26 35-5" fill="#59493c"/><path d="M896 176h33l16 85h-63Z" fill="#7c9297"/><path d="m899 190-37 30-24-9" fill="none" stroke-width="10"/><path d="m897 264-7 69m37-69 8 68" fill="none" stroke-width="14"/></g><g font-family="sans-serif" fill="#24313b"><text x="28" y="40" font-size="24" font-weight="bold">Instructions through physical configuration</text><text x="360" y="335" font-size="20">Patch cables</text><text x="742" y="335" font-size="20">Switches</text><text x="42" y="287" font-size="18">Operator</text></g><path d="M434 318 393 247M793 318V277" fill="none" stroke="#24313b" stroke-width="2"/></svg>
