<svg xmlns="http://www.w3.org/2000/svg" viewBox="0 0 1000 480"><defs><g id="machine">
<rect width="1000" height="480" rx="18" fill="#fffdf7"/>
<rect x="210" y="92" width="330" height="305" rx="18" fill="#edf2ed" stroke="#155f64" stroke-width="3"/>
<rect x="230" y="147" width="145" height="85" rx="9" fill="#fffdf7" stroke="#6c807a" stroke-width="2"/>
<rect x="391" y="147" width="129" height="85" rx="9" fill="#fffdf7" stroke="#6c807a" stroke-width="2"/>
<rect x="230" y="258" width="290" height="86" rx="9" fill="#fffdf7" stroke="#6c807a" stroke-width="2"/>
<rect x="18" y="200" width="123" height="83" rx="12" fill="#e0edf2" stroke="#155f64" stroke-width="2"/>
<rect x="735" y="385" width="245" height="70" rx="12" fill="#f5e4bd" stroke="#87611f" stroke-width="2"/>
<path d="M141 241H210m-12-8 12 8-12 8" fill="none" stroke="#155f64" stroke-width="3"/>
<g font-family="sans-serif" fill="#24313b" text-anchor="middle"><text x="375" y="126" font-size="27" font-weight="bold">CPU</text><text x="303" y="183" font-size="22" font-weight="bold">Control Unit</text><text x="303" y="214" font-size="18">Coordinates</text><text x="455" y="183" font-size="24" font-weight="bold">ALU</text><text x="455" y="214" font-size="18">Operations</text><text x="375" y="289" font-size="23" font-weight="bold">Registers</text><text x="80" y="236" font-size="24" font-weight="bold">Input</text><text x="80" y="263" font-size="17">Values / commands</text><text x="857" y="411" font-size="22" font-weight="bold">Output</text></g>
</g></defs><use href="#machine"/></svg>
