<svg xmlns="http://www.w3.org/2000/svg" viewBox="0 0 320 220"><g stroke="#294c50" stroke-width="3" stroke-linecap="round" stroke-linejoin="round" fill="none"><rect x="20" y="65" width="280" height="108" rx="8" fill="#dcefe8"/><rect x="32" y="78" width="22" height="18" rx="3" fill="#fff"/><rect x="63" y="78" width="22" height="18" rx="3" fill="#fff"/><rect x="94" y="78" width="22" height="18" rx="3" fill="#fff"/><rect x="125" y="78" width="22" height="18" rx="3" fill="#fff"/><rect x="156" y="78" width="22" height="18" rx="3" fill="#fff"/><rect x="187" y="78" width="22" height="18" rx="3" fill="#fff"/><rect x="218" y="78" width="22" height="18" rx="3" fill="#fff"/><rect x="249" y="78" width="22" height="18" rx="3" fill="#fff"/><rect x="32" y="104" width="22" height="18" rx="3" fill="#fff"/><rect x="63" y="104" width="22" height="18" rx="3" fill="#fff"/><rect x="94" y="104" width="22" height="18" rx="3" fill="#fff"/><rect x="125" y="104" width="22" height="18" rx="3" fill="#fff"/><rect x="156" y="104" width="22" height="18" rx="3" fill="#fff"/><rect x="187" y="104" width="22" height="18" rx="3" fill="#fff"/><rect x="218" y="104" width="22" height="18" rx="3" fill="#fff"/><rect x="249" y="104" width="22" height="18" rx="3" fill="#fff"/><rect x="81" y="134" width="143" height="23" rx="3" fill="#fff"/></g><style>text{font-family:sans-serif;font-weight:600;fill:#294c50;stroke:none;text-anchor:middle}</style></svg>
