<svg xmlns="http://www.w3.org/2000/svg" viewBox="0 0 256 36" preserveAspectRatio="none" shape-rendering="crispEdges"><title>256 sample positions quantised to 256 available greys</title><rect x="0" width="1" height="36" fill="rgb(0,0,0)"/><rect x="1" width="1" height="36" fill="rgb(1,1,1)"/><rect x="2" width="1" height="36" fill="rgb(2,2,2)"/><rect x="3" width="1" height="36" fill="rgb(3,3,3)"/><rect x="4" width="1" height="36" fill="rgb(4,4,4)"/><rect x="5" width="1" height="36" fill="rgb(5,5,5)"/><rect x="6" width="1" height="36" fill="rgb(6,6,6)"/><rect x="7" width="1" height="36" fill="rgb(7,7,7)"/><rect x="8" width="1" height="36" fill="rgb(8,8,8)"/><rect x="9" width="1" height="36" fill="rgb(9,9,9)"/><rect x="10" width="1" height="36" fill="rgb(10,10,10)"/><rect x="11" width="1" height="36" fill="rgb(11,11,11)"/><rect x="12" width="1" height="36" fill="rgb(12,12,12)"/><rect x="13" width="1" height="36" fill="rgb(13,13,13)"/><rect x="14" width="1" height="36" fill="rgb(14,14,14)"/><rect x="15" width="1" height="36" fill="rgb(15,15,15)"/><rect x="16" width="1" height="36" fill="rgb(16,16,16)"/><rect x="17" width="1" height="36" fill="rgb(17,17,17)"/><rect x="18" width="1" height="36" fill="rgb(18,18,18)"/><rect x="19" width="1" height="36" fill="rgb(19,19,19)"/><rect x="20" width="1" height="36" fill="rgb(20,20,20)"/><rect x="21" width="1" height="36" fill="rgb(21,21,21)"/><rect x="22" width="1" height="36" fill="rgb(22,22,22)"/><rect x="23" width="1" height="36" fill="rgb(23,23,23)"/><rect x="24" width="1" height="36" fill="rgb(24,24,24)"/><rect x="25" width="1" height="36" fill="rgb(25,25,25)"/><rect x="26" width="1" height="36" fill="rgb(26,26,26)"/><rect x="27" width="1" height="36" fill="rgb(27,27,27)"/><rect x="28" width="1" height="36" fill="rgb(28,28,28)"/><rect x="29" width="1" height="36" fill="rgb(29,29,29)"/><rect x="30" width="1" height="36" fill="rgb(30,30,30)"/><rect x="31" width="1" height="36" fill="rgb(31,31,31)"/><rect x="32" width="1" height="36" fill="rgb(32,32,32)"/><rect x="33" width="1" height="36" fill="rgb(33,33,33)"/><rect x="34" width="1" height="36" fill="rgb(34,34,34)"/><rect x="35" width="1" height="36" fill="rgb(35,35,35)"/><rect x="36" width="1" height="36" fill="rgb(36,36,36)"/><rect x="37" width="1" height="36" fill="rgb(37,37,37)"/><rect x="38" width="1" height="36" fill="rgb(38,38,38)"/><rect x="39" width="1" height="36" fill="rgb(39,39,39)"/><rect x="40" width="1" height="36" fill="rgb(40,40,40)"/><rect x="41" width="1" height="36" fill="rgb(41,41,41)"/><rect x="42" width="1" height="36" fill="rgb(42,42,42)"/><rect x="43" width="1" height="36" fill="rgb(43,43,43)"/><rect x="44" width="1" height="36" fill="rgb(44,44,44)"/><rect x="45" width="1" height="36" fill="rgb(45,45,45)"/><rect x="46" width="1" height="36" fill="rgb(46,46,46)"/><rect x="47" width="1" height="36" fill="rgb(47,47,47)"/><rect x="48" width="1" height="36" fill="rgb(48,48,48)"/><rect x="49" width="1" height="36" fill="rgb(49,49,49)"/><rect x="50" width="1" height="36" fill="rgb(50,50,50)"/><rect x="51" width="1" height="36" fill="rgb(51,51,51)"/><rect x="52" width="1" height="36" fill="rgb(52,52,52)"/><rect x="53" width="1" height="36" fill="rgb(53,53,53)"/><rect x="54" width="1" height="36" fill="rgb(54,54,54)"/><rect x="55" width="1" height="36" fill="rgb(55,55,55)"/><rect x="56" width="1" height="36" fill="rgb(56,56,56)"/><rect x="57" width="1" height="36" fill="rgb(57,57,57)"/><rect x="58" width="1" height="36" fill="rgb(58,58,58)"/><rect x="59" width="1" height="36" fill="rgb(59,59,59)"/><rect x="60" width="1" height="36" fill="rgb(60,60,60)"/><rect x="61" width="1" height="36" fill="rgb(61,61,61)"/><rect x="62" width="1" height="36" fill="rgb(62,62,62)"/><rect x="63" width="1" height="36" fill="rgb(63,63,63)"/><rect x="64" width="1" height="36" fill="rgb(64,64,64)"/><rect x="65" width="1" height="36" fill="rgb(65,65,65)"/><rect x="66" width="1" height="36" fill="rgb(66,66,66)"/><rect x="67" width="1" height="36" fill="rgb(67,67,67)"/><rect x="68" width="1" height="36" fill="rgb(68,68,68)"/><rect x="69" width="1" height="36" fill="rgb(69,69,69)"/><rect x="70" width="1" height="36" fill="rgb(70,70,70)"/><rect x="71" width="1" height="36" fill="rgb(71,71,71)"/><rect x="72" width="1" height="36" fill="rgb(72,72,72)"/><rect x="73" width="1" height="36" fill="rgb(73,73,73)"/><rect x="74" width="1" height="36" fill="rgb(74,74,74)"/><rect x="75" width="1" height="36" fill="rgb(75,75,75)"/><rect x="76" width="1" height="36" fill="rgb(76,76,76)"/><rect x="77" width="1" height="36" fill="rgb(77,77,77)"/><rect x="78" width="1" height="36" fill="rgb(78,78,78)"/><rect x="79" width="1" height="36" fill="rgb(79,79,79)"/><rect x="80" width="1" height="36" fill="rgb(80,80,80)"/><rect x="81" width="1" height="36" fill="rgb(81,81,81)"/><rect x="82" width="1" height="36" fill="rgb(82,82,82)"/><rect x="83" width="1" height="36" fill="rgb(83,83,83)"/><rect x="84" width="1" height="36" fill="rgb(84,84,84)"/><rect x="85" width="1" height="36" fill="rgb(85,85,85)"/><rect x="86" width="1" height="36" fill="rgb(86,86,86)"/><rect x="87" width="1" height="36" fill="rgb(87,87,87)"/><rect x="88" width="1" height="36" fill="rgb(88,88,88)"/><rect x="89" width="1" height="36" fill="rgb(89,89,89)"/><rect x="90" width="1" height="36" fill="rgb(90,90,90)"/><rect x="91" width="1" height="36" fill="rgb(91,91,91)"/><rect x="92" width="1" height="36" fill="rgb(92,92,92)"/><rect x="93" width="1" height="36" fill="rgb(93,93,93)"/><rect x="94" width="1" height="36" fill="rgb(94,94,94)"/><rect x="95" width="1" height="36" fill="rgb(95,95,95)"/><rect x="96" width="1" height="36" fill="rgb(96,96,96)"/><rect x="97" width="1" height="36" fill="rgb(97,97,97)"/><rect x="98" width="1" height="36" fill="rgb(98,98,98)"/><rect x="99" width="1" height="36" fill="rgb(99,99,99)"/><rect x="100" width="1" height="36" fill="rgb(100,100,100)"/><rect x="101" width="1" height="36" fill="rgb(101,101,101)"/><rect x="102" width="1" height="36" fill="rgb(102,102,102)"/><rect x="103" width="1" height="36" fill="rgb(103,103,103)"/><rect x="104" width="1" height="36" fill="rgb(104,104,104)"/><rect x="105" width="1" height="36" fill="rgb(105,105,105)"/><rect x="106" width="1" height="36" fill="rgb(106,106,106)"/><rect x="107" width="1" height="36" fill="rgb(107,107,107)"/><rect x="108" width="1" height="36" fill="rgb(108,108,108)"/><rect x="109" width="1" height="36" fill="rgb(109,109,109)"/><rect x="110" width="1" height="36" fill="rgb(110,110,110)"/><rect x="111" width="1" height="36" fill="rgb(111,111,111)"/><rect x="112" width="1" height="36" fill="rgb(112,112,112)"/><rect x="113" width="1" height="36" fill="rgb(113,113,113)"/><rect x="114" width="1" height="36" fill="rgb(114,114,114)"/><rect x="115" width="1" height="36" fill="rgb(115,115,115)"/><rect x="116" width="1" height="36" fill="rgb(116,116,116)"/><rect x="117" width="1" height="36" fill="rgb(117,117,117)"/><rect x="118" width="1" height="36" fill="rgb(118,118,118)"/><rect x="119" width="1" height="36" fill="rgb(119,119,119)"/><rect x="120" width="1" height="36" fill="rgb(120,120,120)"/><rect x="121" width="1" height="36" fill="rgb(121,121,121)"/><rect x="122" width="1" height="36" fill="rgb(122,122,122)"/><rect x="123" width="1" height="36" fill="rgb(123,123,123)"/><rect x="124" width="1" height="36" fill="rgb(124,124,124)"/><rect x="125" width="1" height="36" fill="rgb(125,125,125)"/><rect x="126" width="1" height="36" fill="rgb(126,126,126)"/><rect x="127" width="1" height="36" fill="rgb(127,127,127)"/><rect x="128" width="1" height="36" fill="rgb(128,128,128)"/><rect x="129" width="1" height="36" fill="rgb(129,129,129)"/><rect x="130" width="1" height="36" fill="rgb(130,130,130)"/><rect x="131" width="1" height="36" fill="rgb(131,131,131)"/><rect x="132" width="1" height="36" fill="rgb(132,132,132)"/><rect x="133" width="1" height="36" fill="rgb(133,133,133)"/><rect x="134" width="1" height="36" fill="rgb(134,134,134)"/><rect x="135" width="1" height="36" fill="rgb(135,135,135)"/><rect x="136" width="1" height="36" fill="rgb(136,136,136)"/><rect x="137" width="1" height="36" fill="rgb(137,137,137)"/><rect x="138" width="1" height="36" fill="rgb(138,138,138)"/><rect x="139" width="1" height="36" fill="rgb(139,139,139)"/><rect x="140" width="1" height="36" fill="rgb(140,140,140)"/><rect x="141" width="1" height="36" fill="rgb(141,141,141)"/><rect x="142" width="1" height="36" fill="rgb(142,142,142)"/><rect x="143" width="1" height="36" fill="rgb(143,143,143)"/><rect x="144" width="1" height="36" fill="rgb(144,144,144)"/><rect x="145" width="1" height="36" fill="rgb(145,145,145)"/><rect x="146" width="1" height="36" fill="rgb(146,146,146)"/><rect x="147" width="1" height="36" fill="rgb(147,147,147)"/><rect x="148" width="1" height="36" fill="rgb(148,148,148)"/><rect x="149" width="1" height="36" fill="rgb(149,149,149)"/><rect x="150" width="1" height="36" fill="rgb(150,150,150)"/><rect x="151" width="1" height="36" fill="rgb(151,151,151)"/><rect x="152" width="1" height="36" fill="rgb(152,152,152)"/><rect x="153" width="1" height="36" fill="rgb(153,153,153)"/><rect x="154" width="1" height="36" fill="rgb(154,154,154)"/><rect x="155" width="1" height="36" fill="rgb(155,155,155)"/><rect x="156" width="1" height="36" fill="rgb(156,156,156)"/><rect x="157" width="1" height="36" fill="rgb(157,157,157)"/><rect x="158" width="1" height="36" fill="rgb(158,158,158)"/><rect x="159" width="1" height="36" fill="rgb(159,159,159)"/><rect x="160" width="1" height="36" fill="rgb(160,160,160)"/><rect x="161" width="1" height="36" fill="rgb(161,161,161)"/><rect x="162" width="1" height="36" fill="rgb(162,162,162)"/><rect x="163" width="1" height="36" fill="rgb(163,163,163)"/><rect x="164" width="1" height="36" fill="rgb(164,164,164)"/><rect x="165" width="1" height="36" fill="rgb(165,165,165)"/><rect x="166" width="1" height="36" fill="rgb(166,166,166)"/><rect x="167" width="1" height="36" fill="rgb(167,167,167)"/><rect x="168" width="1" height="36" fill="rgb(168,168,168)"/><rect x="169" width="1" height="36" fill="rgb(169,169,169)"/><rect x="170" width="1" height="36" fill="rgb(170,170,170)"/><rect x="171" width="1" height="36" fill="rgb(171,171,171)"/><rect x="172" width="1" height="36" fill="rgb(172,172,172)"/><rect x="173" width="1" height="36" fill="rgb(173,173,173)"/><rect x="174" width="1" height="36" fill="rgb(174,174,174)"/><rect x="175" width="1" height="36" fill="rgb(175,175,175)"/><rect x="176" width="1" height="36" fill="rgb(176,176,176)"/><rect x="177" width="1" height="36" fill="rgb(177,177,177)"/><rect x="178" width="1" height="36" fill="rgb(178,178,178)"/><rect x="179" width="1" height="36" fill="rgb(179,179,179)"/><rect x="180" width="1" height="36" fill="rgb(180,180,180)"/><rect x="181" width="1" height="36" fill="rgb(181,181,181)"/><rect x="182" width="1" height="36" fill="rgb(182,182,182)"/><rect x="183" width="1" height="36" fill="rgb(183,183,183)"/><rect x="184" width="1" height="36" fill="rgb(184,184,184)"/><rect x="185" width="1" height="36" fill="rgb(185,185,185)"/><rect x="186" width="1" height="36" fill="rgb(186,186,186)"/><rect x="187" width="1" height="36" fill="rgb(187,187,187)"/><rect x="188" width="1" height="36" fill="rgb(188,188,188)"/><rect x="189" width="1" height="36" fill="rgb(189,189,189)"/><rect x="190" width="1" height="36" fill="rgb(190,190,190)"/><rect x="191" width="1" height="36" fill="rgb(191,191,191)"/><rect x="192" width="1" height="36" fill="rgb(192,192,192)"/><rect x="193" width="1" height="36" fill="rgb(193,193,193)"/><rect x="194" width="1" height="36" fill="rgb(194,194,194)"/><rect x="195" width="1" height="36" fill="rgb(195,195,195)"/><rect x="196" width="1" height="36" fill="rgb(196,196,196)"/><rect x="197" width="1" height="36" fill="rgb(197,197,197)"/><rect x="198" width="1" height="36" fill="rgb(198,198,198)"/><rect x="199" width="1" height="36" fill="rgb(199,199,199)"/><rect x="200" width="1" height="36" fill="rgb(200,200,200)"/><rect x="201" width="1" height="36" fill="rgb(201,201,201)"/><rect x="202" width="1" height="36" fill="rgb(202,202,202)"/><rect x="203" width="1" height="36" fill="rgb(203,203,203)"/><rect x="204" width="1" height="36" fill="rgb(204,204,204)"/><rect x="205" width="1" height="36" fill="rgb(205,205,205)"/><rect x="206" width="1" height="36" fill="rgb(206,206,206)"/><rect x="207" width="1" height="36" fill="rgb(207,207,207)"/><rect x="208" width="1" height="36" fill="rgb(208,208,208)"/><rect x="209" width="1" height="36" fill="rgb(209,209,209)"/><rect x="210" width="1" height="36" fill="rgb(210,210,210)"/><rect x="211" width="1" height="36" fill="rgb(211,211,211)"/><rect x="212" width="1" height="36" fill="rgb(212,212,212)"/><rect x="213" width="1" height="36" fill="rgb(213,213,213)"/><rect x="214" width="1" height="36" fill="rgb(214,214,214)"/><rect x="215" width="1" height="36" fill="rgb(215,215,215)"/><rect x="216" width="1" height="36" fill="rgb(216,216,216)"/><rect x="217" width="1" height="36" fill="rgb(217,217,217)"/><rect x="218" width="1" height="36" fill="rgb(218,218,218)"/><rect x="219" width="1" height="36" fill="rgb(219,219,219)"/><rect x="220" width="1" height="36" fill="rgb(220,220,220)"/><rect x="221" width="1" height="36" fill="rgb(221,221,221)"/><rect x="222" width="1" height="36" fill="rgb(222,222,222)"/><rect x="223" width="1" height="36" fill="rgb(223,223,223)"/><rect x="224" width="1" height="36" fill="rgb(224,224,224)"/><rect x="225" width="1" height="36" fill="rgb(225,225,225)"/><rect x="226" width="1" height="36" fill="rgb(226,226,226)"/><rect x="227" width="1" height="36" fill="rgb(227,227,227)"/><rect x="228" width="1" height="36" fill="rgb(228,228,228)"/><rect x="229" width="1" height="36" fill="rgb(229,229,229)"/><rect x="230" width="1" height="36" fill="rgb(230,230,230)"/><rect x="231" width="1" height="36" fill="rgb(231,231,231)"/><rect x="232" width="1" height="36" fill="rgb(232,232,232)"/><rect x="233" width="1" height="36" fill="rgb(233,233,233)"/><rect x="234" width="1" height="36" fill="rgb(234,234,234)"/><rect x="235" width="1" height="36" fill="rgb(235,235,235)"/><rect x="236" width="1" height="36" fill="rgb(236,236,236)"/><rect x="237" width="1" height="36" fill="rgb(237,237,237)"/><rect x="238" width="1" height="36" fill="rgb(238,238,238)"/><rect x="239" width="1" height="36" fill="rgb(239,239,239)"/><rect x="240" width="1" height="36" fill="rgb(240,240,240)"/><rect x="241" width="1" height="36" fill="rgb(241,241,241)"/><rect x="242" width="1" height="36" fill="rgb(242,242,242)"/><rect x="243" width="1" height="36" fill="rgb(243,243,243)"/><rect x="244" width="1" height="36" fill="rgb(244,244,244)"/><rect x="245" width="1" height="36" fill="rgb(245,245,245)"/><rect x="246" width="1" height="36" fill="rgb(246,246,246)"/><rect x="247" width="1" height="36" fill="rgb(247,247,247)"/><rect x="248" width="1" height="36" fill="rgb(248,248,248)"/><rect x="249" width="1" height="36" fill="rgb(249,249,249)"/><rect x="250" width="1" height="36" fill="rgb(250,250,250)"/><rect x="251" width="1" height="36" fill="rgb(251,251,251)"/><rect x="252" width="1" height="36" fill="rgb(252,252,252)"/><rect x="253" width="1" height="36" fill="rgb(253,253,253)"/><rect x="254" width="1" height="36" fill="rgb(254,254,254)"/><rect x="255" width="1" height="36" fill="rgb(255,255,255)"/></svg>